{
  "accessors": [
    {
      "bufferView": 2,
      "componentType": 5126,
      "count": 1965,
      "max": [
        6.670024394989014,
        7.119892120361328,
        203.94068908691406
      ],
      "min": [
        -6.7503204345703125,
        -6.859766483306885,
        -21.370473861694336
      ],
      "type": "VEC3"
    },
    {
      "bufferView": 2,
      "byteOffset": 23580,
      "componentType": 5126,
      "count": 1965,
      "max": [
        0.9997735023498535,
        0.9961947798728943,
        1.0
      ],
      "min": [
        -0.9995808601379395,
        -0.9997621178627014,
        -1.0
      ],
      "type": "VEC3"
    },
    {
      "bufferView": 3,
      "componentType": 5126,
      "count": 1965,
      "max": [
        0.9983913898468018,
        0.9999135136604309,
        1.0,
        1.0
      ],
      "min": [
        -1.0,
        -0.9983715415000916,
        -0.992854118347168,
        -1.0
      ],
      "type": "VEC4"
    },
    {
      "bufferView": 1,
      "componentType": 5126,
      "count": 1965,
      "max": [
        0.9928798079490662,
        0.9947086572647095
      ],
      "min": [
        0.013356145471334457,
        0.009030729532241821
      ],
      "type": "VEC2"
    },
    {
      "bufferView": 1,
      "byteOffset": 15720,
      "componentType": 5126,
      "count": 1965,
      "max": [
        0.9500004053115845,
        0.9511318206787109
      ],
      "min": [
        0.05865049362182617,
        0.051779523491859436
      ],
      "type": "VEC2"
    },
    {
      "bufferView": 0,
      "componentType": 5125,
      "count": 7308,
      "type": "SCALAR"
    }
  ],
  "asset": {
    "extras": {
      "author": "beyondmatter (https://sketchfab.com/beyondmatter)",
      "license": "CC-BY-4.0 (http://creativecommons.org/licenses/by/4.0/)",
      "source": "https://sketchfab.com/3d-models/overwatch-hanzos-arrow-824c3488aa25429a964ed337e58cdd38",
      "title": "Overwatch - Hanzo's Arrow"
    },
    "generator": "Sketchfab-12.68.0",
    "version": "2.0"
  },
  "bufferViews": [
    {
      "buffer": 0,
      "byteLength": 29232,
      "name": "floatBufferViews",
      "target": 34963
    },
    {
      "buffer": 0,
      "byteLength": 31440,
      "byteOffset": 29232,
      "byteStride": 8,
      "name": "floatBufferViews",
      "target": 34962
    },
    {
      "buffer": 0,
      "byteLength": 47160,
      "byteOffset": 60672,
      "byteStride": 12,
      "name": "floatBufferViews",
      "target": 34962
    },
    {
      "buffer": 0,
      "byteLength": 31440,
      "byteOffset": 107832,
      "byteStride": 16,
      "name": "floatBufferViews",
      "target": 34962
    }
  ],
  "buffers": [
    {
      "byteLength": 139272,
      "uri": "scene.bin"
    }
  ],
  "images": [
    {
      "uri": "textures/RootNode_baseColor.png"
    },
    {
      "uri": "textures/RootNode_metallicRoughness.png"
    },
    {
      "uri": "textures/RootNode_emissive.png"
    },
    {
      "uri": "textures/RootNode_normal.png"
    }
  ],
  "materials": [
    {
      "doubleSided": true,
      "emissiveFactor": [
        1.0,
        1.0,
        1.0
      ],
      "emissiveTexture": {
        "index": 2
      },
      "name": "RootNode",
      "normalTexture": {
        "index": 3
      },
      "pbrMetallicRoughness": {
        "baseColorTexture": {
          "index": 0
        },
        "metallicRoughnessTexture": {
          "index": 1
        }
      }
    }
  ],
  "meshes": [
    {
      "name": "hanzo_arrow_LP__0",
      "primitives": [
        {
          "attributes": {
            "NORMAL": 1,
            "POSITION": 0,
            "TANGENT": 2,
            "TEXCOORD_0": 3,
            "TEXCOORD_1": 4
          },
          "indices": 5,
          "material": 0,
          "mode": 4
        }
      ]
    }
  ],
  "nodes": [
    {
      "children": [
        1
      ],
      "matrix": [
        1.0,
        0.0,
        0.0,
        0.0,
        0.0,
        2.220446049250313e-16,
        -1.0,
        0.0,
        0.0,
        1.0,
        2.220446049250313e-16,
        0.0,
        0.0,
        0.0,
        0.0,
        1.0
      ],
      "name": "Sketchfab_model"
    },
    {
      "children": [
        2
      ],
      "matrix": [
        1.0,
        0.0,
        0.0,
        0.0,
        0.0,
        0.0,
        1.0,
        0.0,
        0.0,
        -1.0,
        0.0,
        0.0,
        0.0,
        0.0,
        0.0,
        1.0
      ],
      "name": "1822fcd6b5b24574bec10d1259d4febe.fbx"
    },
    {
      "children": [
        3
      ],
      "name": "RootNode"
    },
    {
      "children": [
        4
      ],
      "matrix": [
        1.495017909469709e-08,
        0.9396925881148932,
        0.342020233088532,
        0.0,
        8.478665802780228e-08,
        -0.34202023308853224,
        0.9396925881148894,
        0.0,
        0.9999999999999964,
        1.495017992736436e-08,
        -8.478665813882458e-08,
        0.0,
        106.62718200683594,
        -0.2923174500465393,
        0.45599430799484253,
        1.0
      ],
      "name": "hanzo_arrow_LP"
    },
    {
      "children": [
        5
      ],
      "matrix": [
        1.0,
        0.0,
        -0.0,
        0.0,
        0.0,
        1.0,
        0.0,
        0.0,
        0.0,
        0.0,
        1.0,
        0.0,
        -0.014903537929058075,
        -0.16117025911808014,
        -91.28510284423828,
        1.0
      ],
      "name": "Object_4"
    },
    {
      "mesh": 0,
      "name": "hanzo_arrow_LP__0"
    }
  ],
  "samplers": [
    {
      "magFilter": 9729,
      "minFilter": 9987,
      "wrapS": 10497,
      "wrapT": 10497
    }
  ],
  "scene": 0,
  "scenes": [
    {
      "name": "Sketchfab_Scene",
      "nodes": [
        0
      ]
    }
  ],
  "textures": [
    {
      "sampler": 0,
      "source": 0
    },
    {
      "sampler": 0,
      "source": 1
    },
    {
      "sampler": 0,
      "source": 2
    },
    {
      "sampler": 0,
      "source": 3
    }
  ]
}
